<svg width="1584" height="396" viewBox="0 0 1584 396" fill="none" xmlns="http://www.w3.org/2000/svg">
<rect width="1584" height="396" fill="#F5F5F5"/>
<g id="Awesome banner" clip-path="url(#clip0_0_1)">
<rect width="1584" height="396" fill="url(#paint0_linear_0_1)"/>
<ellipse id="Ellipse 2" cx="323" cy="64" rx="285" ry="288" fill="url(#paint1_linear_0_1)" fill-opacity="0.1"/>
<g id="copyright">
<path d="M75.95 334.52L72.30 334.52L72.30 311.16L77.20 311.16L83.70 330.04Q83.60 329.02 83.50 327.62Q83.41 326.23 83.33 324.79Q83.25 323.35 83.25 322.23L83.25 311.16L86.90 311.16L86.90 334.52L82 334.52L75.57 315.64Q75.63 316.57 75.73 317.88Q75.82 319.19 75.89 320.57Q75.95 321.94 75.95 323.10L75.95 334.52M98.80 334.84Q96.46 334.84 94.67 333.96Q92.88 333.08 91.89 331.53Q90.90 329.98 90.90 327.93Q90.90 325.78 92.13 324.18Q93.36 322.58 95.34 322.17L95.34 322.10Q93.65 321.75 92.61 320.38Q91.57 319 91.57 317.11Q91.57 315.26 92.48 313.85Q93.39 312.44 95.02 311.64Q96.66 310.84 98.80 310.84Q100.94 310.84 102.59 311.64Q104.24 312.44 105.15 313.85Q106.06 315.26 106.06 317.11Q106.06 319 105.01 320.38Q103.95 321.75 102.26 322.10L102.26 322.17Q104.24 322.58 105.47 324.18Q106.70 325.78 106.70 327.93Q106.70 329.98 105.71 331.53Q104.72 333.08 102.93 333.96Q101.14 334.84 98.80 334.84M98.80 320.73Q100.30 320.73 101.23 319.82Q102.16 318.90 102.16 317.46Q102.16 315.99 101.23 315.08Q100.30 314.17 98.80 314.17Q97.30 314.17 96.37 315.08Q95.44 315.99 95.44 317.46Q95.44 318.90 96.37 319.82Q97.30 320.73 98.80 320.73M98.80 331.45Q100.56 331.45 101.68 330.42Q102.80 329.40 102.80 327.74Q102.80 326.04 101.68 325Q100.56 323.96 98.80 323.96Q97.04 323.96 95.92 325Q94.80 326.04 94.80 327.74Q94.80 329.40 95.92 330.42Q97.04 331.45 98.80 331.45M114.35 334.52L110.70 334.52L110.70 311.16L115.60 311.16L122.10 330.04Q122 329.02 121.90 327.62Q121.81 326.23 121.73 324.79Q121.65 323.35 121.65 322.23L121.65 311.16L125.30 311.16L125.30 334.52L120.40 334.52L113.97 315.64Q114.03 316.57 114.13 317.88Q114.22 319.19 114.29 320.57Q114.35 321.94 114.35 323.10" fill="white" fill-opacity="0.9"/>
<path d="M161.48 325.24L151.24 325.24L151.24 322.68L161.48 322.68" fill="white" fill-opacity="0.9"/>
<path d="M195.02 334.84Q191.82 334.84 189.96 333.05Q188.11 331.26 188.11 328.12L188.11 317.56Q188.11 314.42 189.96 312.63Q191.82 310.84 195.02 310.84Q198.15 310.84 200.01 312.65Q201.87 314.46 201.87 317.56L198.99 317.56Q198.99 315.58 197.95 314.50Q196.91 313.43 195.02 313.43Q193.13 313.43 192.06 314.50Q190.99 315.58 190.99 317.56L190.99 328.12Q190.99 330.10 192.06 331.18Q193.13 332.25 195.02 332.25Q196.91 332.25 197.95 331.18Q198.99 330.10 198.99 328.12L201.87 328.12Q201.87 331.22 200.01 333.03Q198.15 334.84 195.02 334.84" fill="white" fill-opacity="0.9"/>
<path d="M213.96 334.84Q210.83 334.84 209 333.02Q207.18 331.19 207.18 327.80L207.18 317.88Q207.18 314.49 209 312.66Q210.83 310.84 213.96 310.84Q217.10 310.84 218.92 312.66Q220.75 314.49 220.75 317.85L220.75 327.80Q220.75 331.19 218.92 333.02Q217.10 334.84 213.96 334.84M213.96 332.25Q215.85 332.25 216.86 331.18Q217.87 330.10 217.87 328.12L217.87 317.56Q217.87 315.58 216.86 314.50Q215.85 313.43 213.96 313.43Q212.11 313.43 211.08 314.50Q210.06 315.58 210.06 317.56L210.06 328.12Q210.06 330.10 211.08 331.18Q212.11 332.25 213.96 332.25" fill="white" fill-opacity="0.9"/>
<path d="M228.65 334.52L225.87 334.52L225.87 311.16L230.12 311.16L233.10 321.27L236.20 311.16L240.46 311.16L240.46 334.52L237.67 334.52L237.67 323.48Q237.67 321.91 237.72 319.88Q237.77 317.85 237.87 315.77Q237.96 313.69 238.09 312.02L234.31 324.09L231.82 324.09L228.20 312.31Q228.46 314.68 228.55 317.50Q228.65 320.31 228.65 323.48" fill="white" fill-opacity="0.9"/>
<path d="M247.85 334.52L245.07 334.52L245.07 311.16L249.32 311.16L252.30 321.27L255.40 311.16L259.66 311.16L259.66 334.52L256.87 334.52L256.87 323.48Q256.87 321.91 256.92 319.88Q256.97 317.85 257.07 315.77Q257.16 313.69 257.29 312.02L253.51 324.09L251.02 324.09L247.40 312.31Q247.66 314.68 247.75 317.50Q247.85 320.31 247.85 323.48" fill="white" fill-opacity="0.9"/>
<path d="M271.56 334.84Q268.30 334.84 266.57 333.03Q264.84 331.22 264.84 328.12L264.84 311.16L267.72 311.16L267.72 328.12Q267.72 330.04 268.67 331.16Q269.61 332.28 271.56 332.28Q273.48 332.28 274.44 331.16Q275.40 330.04 275.40 328.12L275.40 311.16L278.28 311.16L278.28 328.12Q278.28 331.26 276.57 333.05Q274.86 334.84 271.56 334.84" fill="white" fill-opacity="0.9"/>
<path d="M286.83 334.52L284.04 334.52L284.04 311.16L287.88 311.16L295.02 331.16Q294.95 330.36 294.87 329.19Q294.79 328.02 294.75 326.73Q294.70 325.43 294.70 324.28L294.70 311.16L297.48 311.16L297.48 334.52L293.64 334.52L286.54 314.52Q286.60 315.29 286.67 316.46Q286.73 317.62 286.78 318.92Q286.83 320.22 286.83 321.40" fill="white" fill-opacity="0.9"/>
<path d="M316.20 334.52L303.72 334.52L303.72 331.90L308.49 331.90L308.49 313.78L303.72 313.78L303.72 311.16L316.20 311.16L316.20 313.78L311.43 313.78L311.43 331.90L316.20 331.90" fill="white" fill-opacity="0.9"/>
<path d="M330.60 334.52L327.72 334.52L327.72 313.78L321.32 313.78L321.32 311.16L337 311.16L337 313.78L330.60 313.78" fill="white" fill-opacity="0.9"/>
<path d="M349.80 334.52L346.92 334.52L346.92 325.78L339.88 311.16L342.95 311.16L347.50 320.76Q347.88 321.56 348.11 322.12Q348.33 322.68 348.39 322.94Q348.46 322.68 348.70 322.12Q348.94 321.56 349.32 320.76L353.87 311.16L356.84 311.16L349.80 325.78" fill="white" fill-opacity="0.9"/>
<path d="M382.83 334.52L380.04 334.52L380.04 311.16L383.88 311.16L391.02 331.16Q390.95 330.36 390.87 329.19Q390.79 328.02 390.75 326.73Q390.70 325.43 390.70 324.28L390.70 311.16L393.48 311.16L393.48 334.52L389.64 334.52L382.54 314.52Q382.60 315.29 382.67 316.46Q382.73 317.62 382.78 318.92Q382.83 320.22 382.83 321.40" fill="white" fill-opacity="0.9"/>
<path d="M405.96 334.84Q402.83 334.84 401 333.02Q399.18 331.19 399.18 327.80L399.18 317.88Q399.18 314.49 401 312.66Q402.83 310.84 405.96 310.84Q409.10 310.84 410.92 312.66Q412.75 314.49 412.75 317.85L412.75 327.80Q412.75 331.19 410.92 333.02Q409.10 334.84 405.96 334.84M405.96 332.25Q407.85 332.25 408.86 331.18Q409.87 330.10 409.87 328.12L409.87 317.56Q409.87 315.58 408.86 314.50Q407.85 313.43 405.96 313.43Q404.11 313.43 403.08 314.50Q402.06 315.58 402.06 317.56L402.06 328.12Q402.06 330.10 403.08 331.18Q404.11 332.25 405.96 332.25" fill="white" fill-opacity="0.9"/>
<path d="M424.55 334.52L418.51 334.52L418.51 311.16L424.55 311.16Q426.83 311.16 428.47 312.02Q430.12 312.89 431.03 314.46Q431.95 316.02 431.95 318.17L431.95 327.48Q431.95 329.62 431.03 331.21Q430.12 332.79 428.47 333.66Q426.83 334.52 424.55 334.52M421.39 313.72L421.39 331.96L424.55 331.96Q426.67 331.96 427.87 330.78Q429.07 329.59 429.07 327.48L429.07 318.17Q429.07 316.09 427.87 314.90Q426.67 313.72 424.55 313.72" fill="white" fill-opacity="0.9"/>
<path d="M451.40 334.52L437.96 334.52L437.96 311.16L451.40 311.16L451.40 313.78L440.81 313.78L440.81 321.02L450.28 321.02L450.28 323.58L440.81 323.58L440.81 331.90L451.40 331.90" fill="white" fill-opacity="0.9"/>
<path d="M463.69 334.84Q460.30 334.84 458.28 333.05Q456.27 331.26 456.27 328.12L459.15 328.12Q459.15 330.07 460.39 331.18Q461.64 332.28 463.69 332.28Q465.67 332.28 466.86 331.13Q468.04 329.98 468.04 328.12Q468.04 326.71 467.29 325.67Q466.54 324.63 465.13 324.25L461.58 323.26Q459.37 322.62 458.11 320.97Q456.84 319.32 456.84 317.08Q456.84 315.22 457.67 313.82Q458.51 312.41 460.01 311.62Q461.51 310.84 463.47 310.84Q465.45 310.84 466.97 311.62Q468.49 312.41 469.35 313.80Q470.22 315.19 470.22 317.02L467.34 317.02Q467.34 315.42 466.25 314.41Q465.16 313.40 463.47 313.40Q461.77 313.40 460.71 314.41Q459.66 315.42 459.66 317.02Q459.66 318.30 460.35 319.21Q461.03 320.12 462.28 320.47L465.93 321.50Q468.27 322.14 469.56 323.91Q470.86 325.69 470.86 328.12Q470.86 331.19 468.91 333.02Q466.95 334.84 463.69 334.84" fill="white" fill-opacity="0.9"/>
</g>
<path d="M78.66 197.64L75.71 197.64L71.20 180.12L73.41 180.12L76.41 192.05Q76.72 193.30 76.92 194.35Q77.13 195.41 77.22 195.96Q77.32 195.41 77.55 194.34Q77.78 193.27 78.09 192.02L80.97 180.12L83.20 180.12" fill="white" fill-opacity="0.7"/>
<path d="M91.60 197.83Q89.22 197.83 87.82 196.44Q86.42 195.05 86.42 192.55L86.42 189.53Q86.42 187.01 87.81 185.63Q89.20 184.25 91.60 184.25Q94 184.25 95.39 185.63Q96.78 187.01 96.78 189.53L96.78 192.55Q96.78 195.05 95.38 196.44Q93.98 197.83 91.60 197.83M91.60 195.91Q93.02 195.91 93.82 195.12Q94.62 194.33 94.62 192.79L94.62 189.29Q94.62 187.75 93.82 186.96Q93.02 186.17 91.60 186.17Q90.21 186.17 89.39 186.96Q88.58 187.75 88.58 189.29L88.58 192.79Q88.58 194.33 89.39 195.12Q90.21 195.91 91.60 195.91" fill="white" fill-opacity="0.7"/>
<path d="M103.17 197.64L101.01 197.64L101.01 184.44L103.17 184.44L103.17 186.96L103.19 186.96Q103.36 185.64 104.27 184.92Q105.18 184.20 106.70 184.20Q108.69 184.20 109.86 185.42Q111.04 186.65 111.04 188.76L111.04 197.64L108.88 197.64L108.88 189.14Q108.88 187.63 108.12 186.83Q107.37 186.02 106.07 186.02Q104.73 186.02 103.95 186.86Q103.17 187.70 103.17 189.24" fill="white" fill-opacity="0.7"/>
<path d="M119.25 197.88Q117.21 197.88 116.01 196.74Q114.81 195.60 114.81 193.75Q114.81 192.53 115.36 191.62Q115.91 190.70 116.90 190.19Q117.88 189.67 119.15 189.67L123.23 189.67L123.23 188.64Q123.23 186.07 120.42 186.07Q119.18 186.07 118.41 186.53Q117.64 186.98 117.59 187.80L115.43 187.80Q115.55 186.24 116.88 185.22Q118.22 184.20 120.42 184.20Q122.82 184.20 124.11 185.35Q125.39 186.50 125.39 188.57L125.39 197.64L123.26 197.64L123.26 195.24L123.21 195.24Q123.02 196.46 121.98 197.17Q120.95 197.88 119.25 197.88M119.78 196.06Q121.36 196.06 122.30 195.29Q123.23 194.52 123.23 193.20L123.23 191.35L119.39 191.35Q118.34 191.35 117.68 191.99Q117.02 192.62 117.02 193.68Q117.02 194.78 117.75 195.42Q118.48 196.06 119.78 196.06" fill="white" fill-opacity="0.7"/>
<path d="M135.16 201.96L131.46 201.96L131.46 199.99L135.18 199.99Q136.31 199.99 136.96 199.36Q137.61 198.72 137.61 197.64L137.61 196.44L137.66 194.28L137.58 194.28Q137.39 195.46 136.46 196.09Q135.52 196.73 134.10 196.73Q132.06 196.73 130.89 195.43Q129.71 194.14 129.71 191.88L129.71 189.10Q129.71 186.84 130.89 185.52Q132.06 184.20 134.10 184.20Q135.52 184.20 136.46 184.87Q137.39 185.54 137.58 186.72L137.63 186.72L137.63 184.44L139.77 184.44L139.77 197.64Q139.77 199.63 138.53 200.80Q137.30 201.96 135.16 201.96M134.75 194.93Q136.10 194.93 136.86 194.09Q137.63 193.25 137.63 191.76L137.63 189.24Q137.63 187.75 136.86 186.91Q136.10 186.07 134.75 186.07Q133.38 186.07 132.63 186.86Q131.87 187.66 131.87 189L131.87 192Q131.87 193.34 132.63 194.14Q133.38 194.93 134.75 194.93" fill="white" fill-opacity="0.7"/>
<path d="M149.20 197.88Q146.87 197.88 145.44 196.48Q144.02 195.07 144.02 192.60L144.02 189.48Q144.02 187.01 145.44 185.60Q146.87 184.20 149.20 184.20Q150.76 184.20 151.92 184.82Q153.09 185.45 153.74 186.58Q154.38 187.70 154.38 189.24L154.38 191.59L146.13 191.59L146.13 192.84Q146.13 194.30 146.97 195.16Q147.81 196.01 149.20 196.01Q150.40 196.01 151.18 195.54Q151.96 195.07 152.13 194.28L154.29 194.28Q154.07 195.94 152.68 196.91Q151.29 197.88 149.20 197.88M146.13 189.24L146.13 189.91L152.27 189.91L152.27 189.24Q152.27 187.68 151.47 186.83Q150.66 185.98 149.20 185.98Q147.74 185.98 146.93 186.83Q146.13 187.68 146.13 189.24" fill="white" fill-opacity="0.7"/>
<path d="M178.36 197.64L173.03 197.64L173.03 180.12LNaN 180.12Q180.40 180.12 181.76 181.32Q183.11 182.52 183.11 184.66Q183.11 186 182.26 187.08Q181.41 188.16 180.04 188.42L180.04 188.50Q181.07 188.62 181.85 189.22Q182.63 189.82 183.08 190.74Q183.52 191.66 183.52 192.77Q183.52 195.02 182.14 196.33Q180.76 197.64 178.36 197.64M175.14 182.06L175.14 187.58L177.98 187.58Q179.37 187.58 180.17 186.84Q180.98 186.10 180.98 184.82Q180.98 183.55 180.18 182.81Q179.39 182.06 NaN 182.06L175.14 182.06M175.14 189.46L175.14 195.70L178.12 195.70Q179.63 195.70 180.51 194.89Q181.38 194.09 181.38 192.70Q181.38 191.26 180.51 190.36Q179.63 189.46 178.12 189.46" fill="white" fill-opacity="0.7"/>
<path d="M192.38 197.88Q190.10 197.88 188.73 196.52Q187.36 195.17 187.36 192.84L187.36 184.44L189.52 184.44L189.52 192.84Q189.52 194.28 190.29 195.13Q191.06 195.98 192.38 195.98Q193.72 195.98 194.50 195.13Q195.28 194.28 195.28 192.84L195.28 184.44L197.44 184.44L197.44 192.84Q197.44 195.17 196.05 196.52Q194.66 197.88 192.38 197.88" fill="white" fill-opacity="0.7"/>
<path d="M207.33 197.83L206.27 197.83Q204.06 197.83 202.85 196.84Q201.64 195.84 201.64 194.02L203.80 194.02Q203.80 194.93 204.45 195.44Q205.10 195.96 206.27 195.96L207.33 195.96Q208.53 195.96 209.19 195.43Q209.85 194.90 209.85 193.94Q209.85 192.24 208.29 192.02L204.64 191.50Q203.30 191.30 202.55 190.38Q201.81 189.46 201.81 187.94Q201.81 186.22 203 185.23Q204.18 184.25 206.27 184.25L207.33 184.25Q209.25 184.25 210.46 185.20Q211.67 186.14 211.77 187.68L209.58 187.68Q209.54 186.98 208.92 186.53Q208.31 186.07 207.33 186.07L206.27 186.07Q205.17 186.07 204.54 186.58Q203.92 187.08 203.92 187.94Q203.92 189.34 205.19 189.53L208.60 190.01Q211.96 190.49 211.96 193.94Q211.96 195.79 210.75 196.81Q209.54 197.83 207.33 197.83" fill="white" fill-opacity="0.7"/>
<path d="M227.32 197.64L216.04 197.64L216.04 195.67L220.72 195.67L220.72 186.41L216.52 186.41L216.52 184.44L222.88 184.44L222.88 195.67L227.32 195.67L227.32 197.64M221.56 182.06Q220.77 182.06 220.31 181.66Q219.86 181.25 219.86 180.55Q219.86 179.83 220.31 179.41Q220.77 178.99 221.56 178.99Q222.35 178.99 222.81 179.41Q223.26 179.83 223.26 180.55Q223.26 181.25 222.81 181.66Q222.35 182.06 221.56 182.06" fill="white" fill-opacity="0.7"/>
<path d="M232.77 197.64L230.61 197.64L230.61 184.44L232.77 184.44L232.77 186.96L232.79 186.96Q232.96 185.64 233.87 184.92Q234.78 184.20 236.30 184.20Q238.29 184.20 239.46 185.42Q240.64 186.65 240.64 188.76L240.64 197.64L238.48 197.64L238.48 189.14Q238.48 187.63 237.72 186.83Q236.97 186.02 235.67 186.02Q234.33 186.02 233.55 186.86Q232.77 187.70 232.77 189.24" fill="white" fill-opacity="0.7"/>
<path d="MNaN 197.88Q247.67 197.88 246.24 196.48Q244.82 195.07 244.82 192.60L244.82 189.48Q244.82 187.01 246.24 185.60Q247.67 184.20 NaN 184.20Q251.56 184.20 252.72 184.82Q253.89 185.45 254.54 186.58Q255.18 187.70 255.18 189.24L255.18 191.59L246.93 191.59L246.93 192.84Q246.93 194.30 247.77 195.16Q248.61 196.01 NaN 196.01Q251.20 196.01 251.98 195.54Q252.76 195.07 252.93 194.28L255.09 194.28Q254.87 195.94 253.48 196.91Q252.09 197.88 NaN 197.88M246.93 189.24L246.93 189.91L253.07 189.91L253.07 189.24Q253.07 187.68 252.27 186.83Q251.46 185.98 NaN 185.98Q248.54 185.98 247.73 186.83Q246.93 187.68 246.93 189.24" fill="white" fill-opacity="0.7"/>
<path d="M264.93 197.83L263.87 197.83Q261.66 197.83 260.45 196.84Q259.24 195.84 259.24 194.02L261.40 194.02Q261.40 194.93 262.05 195.44Q262.70 195.96 263.87 195.96L264.93 195.96Q266.13 195.96 266.79 195.43Q267.45 194.90 267.45 193.94Q267.45 192.24 265.89 192.02L262.24 191.50Q260.90 191.30 260.15 190.38Q259.41 189.46 259.41 187.94Q259.41 186.22 260.60 185.23Q261.78 184.25 263.87 184.25L264.93 184.25Q266.85 184.25 268.06 185.20Q269.27 186.14 269.37 187.68L267.18 187.68Q267.14 186.98 266.52 186.53Q265.91 186.07 264.93 186.07L263.87 186.07Q262.77 186.07 262.14 186.58Q261.52 187.08 261.52 187.94Q261.52 189.34 262.79 189.53L266.20 190.01Q269.56 190.49 269.56 193.94Q269.56 195.79 268.35 196.81Q267.14 197.83 264.93 197.83" fill="white" fill-opacity="0.7"/>
<path d="M279.33 197.83L278.27 197.83Q276.06 197.83 274.85 196.84Q273.64 195.84 273.64 194.02L275.80 194.02Q275.80 194.93 276.45 195.44Q277.10 195.96 278.27 195.96L279.33 195.96Q280.53 195.96 281.19 195.43Q281.85 194.90 281.85 193.94Q281.85 192.24 280.29 192.02L276.64 191.50Q275.30 191.30 274.55 190.38Q273.81 189.46 273.81 187.94Q273.81 186.22 275 185.23Q276.18 184.25 278.27 184.25L279.33 184.25Q281.25 184.25 282.46 185.20Q283.67 186.14 283.77 187.68L281.58 187.68Q281.54 186.98 280.92 186.53Q280.31 186.07 279.33 186.07L278.27 186.07Q277.17 186.07 276.54 186.58Q275.92 187.08 275.92 187.94Q275.92 189.34 277.19 189.53L280.60 190.01Q283.96 190.49 283.96 193.94Q283.96 195.79 282.75 196.81Q281.54 197.83 279.33 197.83" fill="white" fill-opacity="0.7"/>
<path d="M307.79 197.88Q305.39 197.88 304 196.54Q302.61 195.19 302.61 192.84L302.61 184.92Q302.61 182.57 304 181.22Q305.39 179.88 307.79 179.88Q310.14 179.88 311.54 181.24Q312.93 182.59 312.93 184.92L310.77 184.92Q310.77 183.43 309.99 182.63Q309.21 181.82 307.79 181.82Q306.38 181.82 305.57 182.63Q304.77 183.43 304.77 184.92L304.77 192.84Q304.77 194.33 305.57 195.13Q306.38 195.94 307.79 195.94Q309.21 195.94 309.99 195.13Q310.77 194.33 310.77 192.84L312.93 192.84Q312.93 195.17 311.54 196.52Q310.14 197.88 307.79 197.88" fill="white" fill-opacity="0.7"/>
<path d="M328 197.64L323.92 197.64Q322.17 197.64 321.12 196.62Q320.08 195.60 320.08 193.92L320.08 182.09L315.52 182.09L315.52 180.12L322.24 180.12L322.24 193.92Q322.24 194.74 322.70 195.20Q323.15 195.67 323.92 195.67L328 195.67" fill="white" fill-opacity="0.7"/>
<path d="M336.40 197.83Q334.02 197.83 332.62 196.44Q331.22 195.05 331.22 192.55L331.22 189.53Q331.22 187.01 332.61 185.63Q334 184.25 336.40 184.25Q338.80 184.25 340.19 185.63Q341.58 187.01 341.58 189.53L341.58 192.55Q341.58 195.05 340.18 196.44Q338.78 197.83 336.40 197.83M336.40 195.91Q337.82 195.91 338.62 195.12Q339.42 194.33 339.42 192.79L339.42 189.29Q339.42 187.75 338.62 186.96Q337.82 186.17 336.40 186.17Q335.01 186.17 334.19 186.96Q333.38 187.75 333.38 189.29L333.38 192.79Q333.38 194.33 334.19 195.12Q335.01 195.91 336.40 195.91" fill="white" fill-opacity="0.7"/>
<path d="M350.78 197.88Q348.50 197.88 347.13 196.52Q345.76 195.17 345.76 192.84L345.76 184.44L347.92 184.44L347.92 192.84Q347.92 194.28 348.69 195.13Q349.46 195.98 350.78 195.98Q352.12 195.98 352.90 195.13Q353.68 194.28 353.68 192.84L353.68 184.44L355.84 184.44L355.84 192.84Q355.84 195.17 354.45 196.52Q353.06 197.88 350.78 197.88" fill="white" fill-opacity="0.7"/>
<path d="M364.43 197.88Q362.46 197.88 361.28 196.56Q360.09 195.24 360.09 192.98L360.09 189.12Q360.09 186.84 361.26 185.52Q362.44 184.20 364.43 184.20Q365.92 184.20 366.89 184.94Q367.86 185.69 368.06 186.96L368.08 186.96L368.03 183.96L368.03 180.12L370.19 180.12L370.19 197.64L368.03 197.64L368.03 195.12L368.01 195.12Q367.84 196.42 366.88 197.15Q365.92 197.88 364.43 197.88M365.15 196.01Q366.50 196.01 367.26 195.17Q368.03 194.33 368.03 192.84L368.03 189.24Q368.03 187.75 367.26 186.91Q366.50 186.07 365.15 186.07Q363.78 186.07 363.02 186.78Q362.25 187.49 362.25 189.12L362.25 192.96Q362.25 194.57 363.02 195.29Q363.78 196.01 365.15 196.01" fill="white" fill-opacity="0.7"/>
<path d="M391.17 197.64L389.03 197.64L389.03 180.12L394.43 180.12Q395.99 180.12 397.17 180.76Q398.34 181.39 398.99 182.52Q399.64 183.65 399.64 185.16Q399.64 186.94 398.73 188.21Q397.82 189.48 396.30 189.98L399.88 197.64L397.50 197.64L394.07 190.20L391.17 190.20L391.17 197.64M391.17 182.06L391.17 188.26L394.43 188.26Q395.78 188.26 396.59 187.40Q397.41 186.55 397.41 185.16Q397.41 183.74 396.59 182.90Q395.78 182.06 394.43 182.06" fill="white" fill-opacity="0.7"/>
<path d="M408.40 197.88Q406.07 197.88 404.64 196.48Q403.22 195.07 403.22 192.60L403.22 189.48Q403.22 187.01 404.64 185.60Q406.07 184.20 408.40 184.20Q409.96 184.20 411.12 184.82Q412.29 185.45 412.94 186.58Q413.58 187.70 413.58 189.24L413.58 191.59L405.33 191.59L405.33 192.84Q405.33 194.30 406.17 195.16Q407.01 196.01 408.40 196.01Q409.60 196.01 410.38 195.54Q411.16 195.07 411.33 194.28L413.49 194.28Q413.27 195.94 411.88 196.91Q410.49 197.88 408.40 197.88M405.33 189.24L405.33 189.91L411.47 189.91L411.47 189.24Q411.47 187.68 410.67 186.83Q409.86 185.98 408.40 185.98Q406.94 185.98 406.13 186.83Q405.33 187.68 405.33 189.24" fill="white" fill-opacity="0.7"/>
<path d="M419.97 201.96L417.81 201.96L417.81 184.44L419.97 184.44L419.97 186.96L419.99 186.96Q420.16 185.66 421.12 184.93Q422.08 184.20 423.57 184.20Q425.56 184.20 426.74 185.51Q427.91 186.82 427.91 189.10L427.91 192.96Q427.91 195.24 426.74 196.56Q425.56 197.88 423.57 197.88Q422.08 197.88 421.12 197.14Q420.16 196.39 419.99 195.12L419.92 195.12L419.97 198.12L419.97 201.96M422.85 196.01Q424.22 196.01 424.98 195.29Q425.75 194.57 425.75 192.96L425.75 189.12Q425.75 187.49 424.98 186.78Q424.22 186.07 422.85 186.07Q421.53 186.07 420.75 186.91Q419.97 187.75 419.97 189.24L419.97 192.84Q419.97 194.33 420.75 195.17Q421.53 196.01 422.85 196.01" fill="white" fill-opacity="0.7"/>
<path d="M437.20 197.83Q434.82 197.83 433.42 196.44Q432.02 195.05 432.02 192.55L432.02 189.53Q432.02 187.01 433.41 185.63Q434.80 184.25 437.20 184.25Q439.60 184.25 440.99 185.63Q442.38 187.01 442.38 189.53L442.38 192.55Q442.38 195.05 440.98 196.44Q439.58 197.83 437.20 197.83M437.20 195.91Q438.62 195.91 439.42 195.12Q440.22 194.33 440.22 192.79L440.22 189.29Q440.22 187.75 439.42 186.96Q438.62 186.17 437.20 186.17Q435.81 186.17 434.99 186.96Q434.18 187.75 434.18 189.29L434.18 192.79Q434.18 194.33 434.99 195.12Q435.81 195.91 437.20 195.91" fill="white" fill-opacity="0.7"/>
<path d="M449.25 197.64L447.09 197.64L447.09 184.44L449.25 184.44L449.25 186.96L449.30 186.96Q449.46 185.69 450.38 184.94Q451.29 184.20 452.82 184.20Q454.89 184.20 456 185.44Q457.12 186.67 457.12 188.95L457.12 190.08L454.96 190.08L454.96 188.95Q454.96 186.07 452.15 186.07Q450.74 186.07 449.99 186.89Q449.25 187.70 449.25 189.24" fill="white" fill-opacity="0.7"/>
<path d="M471.16 197.64L467.32 197.64Q465.69 197.64 464.70 196.69Q463.72 195.74 463.72 194.16L463.72 186.41L459.93 186.41L459.93 184.44L463.72 184.44L463.72 180.72L465.88 180.72L465.88 184.44L471.28 184.44L471.28 186.41L465.88 186.41L465.88 194.16Q465.88 194.83 466.28 195.25Q466.67 195.67 467.32 195.67L471.16 195.67" fill="white" fill-opacity="0.7"/>
<path d="M480.93 197.83L479.87 197.83Q477.66 197.83 476.45 196.84Q475.24 195.84 475.24 194.02L477.40 194.02Q477.40 194.93 478.05 195.44Q478.70 195.96 479.87 195.96L480.93 195.96Q482.13 195.96 482.79 195.43Q483.45 194.90 483.45 193.94Q483.45 192.24 481.89 192.02L478.24 191.50Q476.90 191.30 476.15 190.38Q475.41 189.46 475.41 187.94Q475.41 186.22 476.60 185.23Q477.78 184.25 479.87 184.25L480.93 184.25Q482.85 184.25 484.06 185.20Q485.27 186.14 485.37 187.68L483.18 187.68Q483.14 186.98 482.52 186.53Q481.91 186.07 480.93 186.07L479.87 186.07Q478.77 186.07 478.14 186.58Q477.52 187.08 477.52 187.94Q477.52 189.34 478.79 189.53L482.20 190.01Q485.56 190.49 485.56 193.94Q485.56 195.79 484.35 196.81Q483.14 197.83 480.93 197.83" fill="white" fill-opacity="0.7"/>
<path d="M505.41 197.64L503.20 197.64L507.76 180.12L510.66 180.12L515.20 197.64L513.02 197.64L511.86 192.98L506.56 192.98L505.41 197.64M508.34 185.74L506.99 191.16L511.41 191.16L510.06 185.76Q509.68 184.22 509.46 183.19Q509.25 182.16 509.20 181.85Q509.15 182.16 508.94 183.19Q508.72 184.22 508.34 185.74" fill="white" fill-opacity="0.7"/>
<path d="M520.77 197.64L518.61 197.64L518.61 180.12L524.25 180.12Q526.70 180.12 528.15 181.52Q529.60 182.93 529.60 185.28Q529.60 187.63 528.15 189.04Q526.70 190.44 524.25 190.44L520.77 190.44L520.77 197.64M520.77 182.06L520.77 188.50L524.25 188.50Q525.66 188.50 526.52 187.62Q527.37 186.74 527.37 185.28Q527.37 183.79 526.52 182.93Q525.66 182.06 524.25 182.06" fill="white" fill-opacity="0.7"/>
<path d="M542.68 197.64L533.32 197.64L533.32 195.67L536.90 195.67L536.90 182.09L533.32 182.09L533.32 180.12L542.68 180.12L542.68 182.09L539.10 182.09L539.10 195.67L542.68 195.67" fill="white" fill-opacity="0.7"/>
<path d="M566.80 197.88Q564.47 197.88 563.04 196.48Q561.62 195.07 561.62 192.60L561.62 189.48Q561.62 187.01 563.04 185.60Q564.47 184.20 566.80 184.20Q568.36 184.20 569.52 184.82Q570.69 185.45 571.34 186.58Q571.98 187.70 571.98 189.24L571.98 191.59L563.73 191.59L563.73 192.84Q563.73 194.30 564.57 195.16Q565.41 196.01 566.80 196.01Q568 196.01 568.78 195.54Q569.56 195.07 569.73 194.28L571.89 194.28Q571.67 195.94 570.28 196.91Q568.89 197.88 566.80 197.88M563.73 189.24L563.73 189.91L569.87 189.91L569.87 189.24Q569.87 187.68 569.07 186.83Q568.26 185.98 566.80 185.98Q565.34 185.98 564.53 186.83Q563.73 187.68 563.73 189.24" fill="white" fill-opacity="0.7"/>
<path d="M578.37 197.64L576.21 197.64L576.21 184.44L578.37 184.44L578.37 186.96L578.39 186.96Q578.56 185.64 579.47 184.92Q580.38 184.20 581.90 184.20Q583.89 184.20 585.06 185.42Q586.24 186.65 586.24 188.76L586.24 197.64L584.08 197.64L584.08 189.14Q584.08 187.63 583.32 186.83Q582.57 186.02 581.27 186.02Q579.93 186.02 579.15 186.86Q578.37 187.70 578.37 189.24" fill="white" fill-opacity="0.7"/>
<path d="M594.45 197.88Q592.41 197.88 591.21 196.74Q590.01 195.60 590.01 193.75Q590.01 192.53 590.56 191.62Q591.11 190.70 592.10 190.19Q593.08 189.67 594.35 189.67L598.43 189.67L598.43 188.64Q598.43 186.07 595.62 186.07Q594.38 186.07 593.61 186.53Q592.84 186.98 592.79 187.80L590.63 187.80Q590.75 186.24 592.08 185.22Q593.42 184.20 595.62 184.20Q598.02 184.20 599.31 185.35Q600.59 186.50 600.59 188.57L600.59 197.64L598.46 197.64L598.46 195.24L598.41 195.24Q598.22 196.46 597.18 197.17Q596.15 197.88 594.45 197.88M594.98 196.06Q596.56 196.06 597.50 195.29Q598.43 194.52 598.43 193.20L598.43 191.35L594.59 191.35Q593.54 191.35 592.88 191.99Q592.22 192.62 592.22 193.68Q592.22 194.78 592.95 195.42Q593.68 196.06 594.98 196.06" fill="white" fill-opacity="0.7"/>
<path d="M610.77 197.88Q609.28 197.88 608.32 197.15Q607.36 196.42 607.19 195.12L607.17 195.12L607.17 197.64L605.01 197.64L605.01 180.12L607.17 180.12L607.17 183.96L607.12 186.96L607.14 186.96Q607.34 185.69 608.31 184.94Q609.28 184.20 610.77 184.20Q612.76 184.20 613.94 185.52Q615.11 186.84 615.11 189.12L615.11 192.98Q615.11 195.24 613.94 196.56Q612.76 197.88 610.77 197.88M610.05 196.01Q611.42 196.01 612.18 195.29Q612.95 194.57 612.95 192.96L612.95 189.12Q612.95 187.49 612.18 186.78Q611.42 186.07 610.05 186.07Q608.73 186.07 607.95 186.91Q607.17 187.75 607.17 189.24L607.17 192.84Q607.17 194.33 607.95 195.17Q608.73 196.01 610.05 196.01" fill="white" fill-opacity="0.7"/>
<path d="M630.40 197.64L626.32 197.64Q624.57 197.64 623.52 196.62Q622.48 195.60 622.48 193.92L622.48 182.09L617.92 182.09L617.92 180.12L624.64 180.12L624.64 193.92Q624.64 194.74 625.10 195.20Q625.55 195.67 626.32 195.67L630.40 195.67" fill="white" fill-opacity="0.7"/>
<path d="M638.80 197.88Q636.47 197.88 635.04 196.48Q633.62 195.07 633.62 192.60L633.62 189.48Q633.62 187.01 635.04 185.60Q636.47 184.20 638.80 184.20Q640.36 184.20 641.52 184.82Q642.69 185.45 643.34 186.58Q643.98 187.70 643.98 189.24L643.98 191.59L635.73 191.59L635.73 192.84Q635.73 194.30 636.57 195.16Q637.41 196.01 638.80 196.01Q640 196.01 640.78 195.54Q641.56 195.07 641.73 194.28L643.89 194.28Q643.67 195.94 642.28 196.91Q640.89 197.88 638.80 197.88M635.73 189.24L635.73 189.91L641.87 189.91L641.87 189.24Q641.87 187.68 641.07 186.83Q640.26 185.98 638.80 185.98Q637.34 185.98 636.53 186.83Q635.73 187.68 635.73 189.24" fill="white" fill-opacity="0.7"/>
<path d="M653.73 197.83L652.67 197.83Q650.46 197.83 649.25 196.84Q648.04 195.84 648.04 194.02L650.20 194.02Q650.20 194.93 650.85 195.44Q651.50 195.96 652.67 195.96L653.73 195.96Q654.93 195.96 655.59 195.43Q656.25 194.90 656.25 193.94Q656.25 192.24 654.69 192.02L651.04 191.50Q649.70 191.30 648.95 190.38Q648.21 189.46 648.21 187.94Q648.21 186.22 649.40 185.23Q650.58 184.25 652.67 184.25L653.73 184.25Q655.65 184.25 656.86 185.20Q658.07 186.14 658.17 187.68L655.98 187.68Q655.94 186.98 655.32 186.53Q654.71 186.07 653.73 186.07L652.67 186.07Q651.57 186.07 650.94 186.58Q650.32 187.08 650.32 187.94Q650.32 189.34 651.59 189.53L655 190.01Q658.36 190.49 658.36 193.94Q658.36 195.79 657.15 196.81Q655.94 197.83 653.73 197.83" fill="white" fill-opacity="0.7"/>
<path d="M681.33 201.96L679.07 201.96L681.02 196.82L676.10 184.44L678.42 184.44L681.54 192.60Q681.74 193.08 681.90 193.61Q682.07 194.14 682.14 194.52Q682.22 194.14 682.38 193.61Q682.55 193.08 682.72 192.60L685.62 184.44L687.90 184.44" fill="white" fill-opacity="0.7"/>
<path d="M696.40 197.83Q694.02 197.83 692.62 196.44Q691.22 195.05 691.22 192.55L691.22 189.53Q691.22 187.01 692.61 185.63Q694 184.25 696.40 184.25Q698.80 184.25 700.19 185.63Q701.58 187.01 701.58 189.53L701.58 192.55Q701.58 195.05 700.18 196.44Q698.78 197.83 696.40 197.83M696.40 195.91Q697.82 195.91 698.62 195.12Q699.42 194.33 699.42 192.79L699.42 189.29Q699.42 187.75 698.62 186.96Q697.82 186.17 696.40 186.17Q695.01 186.17 694.19 186.96Q693.38 187.75 693.38 189.29L693.38 192.79Q693.38 194.33 694.19 195.12Q695.01 195.91 696.40 195.91" fill="white" fill-opacity="0.7"/>
<path d="M710.78 197.88Q708.50 197.88 707.13 196.52Q705.76 195.17 705.76 192.84L705.76 184.44L707.92 184.44L707.92 192.84Q707.92 194.28 708.69 195.13Q709.46 195.98 710.78 195.98Q712.12 195.98 712.90 195.13Q713.68 194.28 713.68 192.84L713.68 184.44L715.84 184.44L715.84 192.84Q715.84 195.17 714.45 196.52Q713.06 197.88 710.78 197.88" fill="white" fill-opacity="0.7"/>
<path d="M744.76 197.64L740.92 197.64Q739.29 197.64 738.30 196.69Q737.32 195.74 737.32 194.16L737.32 186.41L733.53 186.41L733.53 184.44L737.32 184.44L737.32 180.72L739.48 180.72L739.48 184.44L744.88 184.44L744.88 186.41L739.48 186.41L739.48 194.16Q739.48 194.83 739.88 195.25Q740.27 195.67 740.92 195.67L744.76 195.67" fill="white" fill-opacity="0.7"/>
<path d="M754 197.83Q751.62 197.83 750.22 196.44Q748.82 195.05 748.82 192.55L748.82 189.53Q748.82 187.01 750.21 185.63Q751.60 184.25 754 184.25Q756.40 184.25 757.79 185.63Q759.18 187.01 759.18 189.53L759.18 192.55Q759.18 195.05 757.78 196.44Q756.38 197.83 754 197.83M754 195.91Q755.42 195.91 756.22 195.12Q757.02 194.33 757.02 192.79L757.02 189.29Q757.02 187.75 756.22 186.96Q755.42 186.17 754 186.17Q752.61 186.17 751.79 186.96Q750.98 187.75 750.98 189.29L750.98 192.79Q750.98 194.33 751.79 195.12Q752.61 195.91 754 195.91" fill="white" fill-opacity="0.7"/>
<path d="M780.45 197.64L778.29 197.64L778.29 184.44L780.45 184.44L780.45 186.96L780.50 186.96Q780.66 185.69 781.58 184.94Q782.49 184.20 784.02 184.20Q786.09 184.20 787.20 185.44Q788.32 186.67 788.32 188.95L788.32 190.08L786.16 190.08L786.16 188.95Q786.16 186.07 783.35 186.07Q781.94 186.07 781.19 186.89Q780.45 187.70 780.45 189.24" fill="white" fill-opacity="0.7"/>
<path d="M797.20 197.88Q794.87 197.88 793.44 196.48Q792.02 195.07 792.02 192.60L792.02 189.48Q792.02 187.01 793.44 185.60Q794.87 184.20 797.20 184.20Q798.76 184.20 799.92 184.82Q801.09 185.45 801.74 186.58Q802.38 187.70 802.38 189.24L802.38 191.59L794.13 191.59L794.13 192.84Q794.13 194.30 794.97 195.16Q795.81 196.01 797.20 196.01Q798.40 196.01 799.18 195.54Q799.96 195.07 800.13 194.28L802.29 194.28Q802.07 195.94 800.68 196.91Q799.29 197.88 797.20 197.88M794.13 189.24L794.13 189.91L800.27 189.91L800.27 189.24Q800.27 187.68 799.47 186.83Q798.66 185.98 797.20 185.98Q795.74 185.98 794.93 186.83Q794.13 187.68 794.13 189.24" fill="white" fill-opacity="0.7"/>
<path d="M816.76 197.64L812.92 197.64Q811.29 197.64 810.30 196.69Q809.32 195.74 809.32 194.16L809.32 186.41L805.53 186.41L805.53 184.44L809.32 184.44L809.32 180.72L811.48 180.72L811.48 184.44L816.88 184.44L816.88 186.41L811.48 186.41L811.48 194.16Q811.48 194.83 811.88 195.25Q812.27 195.67 812.92 195.67L816.76 195.67" fill="white" fill-opacity="0.7"/>
<path d="M823.65 197.64L821.49 197.64L821.49 184.44L823.65 184.44L823.65 186.96L823.70 186.96Q823.86 185.69 824.78 184.94Q825.69 184.20 827.22 184.20Q829.29 184.20 830.40 185.44Q831.52 186.67 831.52 188.95L831.52 190.08L829.36 190.08L829.36 188.95Q829.36 186.07 826.55 186.07Q825.14 186.07 824.39 186.89Q823.65 187.70 823.65 189.24" fill="white" fill-opacity="0.7"/>
<path d="M846.52 197.64L835.24 197.64L835.24 195.67L839.92 195.67L839.92 186.41L835.72 186.41L835.72 184.44L842.08 184.44L842.08 195.67L846.52 195.67L846.52 197.64M840.76 182.06Q839.97 182.06 839.51 181.66Q839.06 181.25 839.06 180.55Q839.06 179.83 839.51 179.41Q839.97 178.99 840.76 178.99Q841.55 178.99 842.01 179.41Q842.46 179.83 842.46 180.55Q842.46 181.25 842.01 181.66Q841.55 182.06 840.76 182.06" fill="white" fill-opacity="0.7"/>
<path d="M854.80 197.88Q852.47 197.88 851.04 196.48Q849.62 195.07 849.62 192.60L849.62 189.48Q849.62 187.01 851.04 185.60Q852.47 184.20 854.80 184.20Q856.36 184.20 857.52 184.82Q858.69 185.45 859.34 186.58Q859.98 187.70 859.98 189.24L859.98 191.59L851.73 191.59L851.73 192.84Q851.73 194.30 852.57 195.16Q853.41 196.01 854.80 196.01Q856 196.01 856.78 195.54Q857.56 195.07 857.73 194.28L859.89 194.28Q859.67 195.94 858.28 196.91Q856.89 197.88 854.80 197.88M851.73 189.24L851.73 189.91L857.87 189.91L857.87 189.24Q857.87 187.68 857.07 186.83Q856.26 185.98 854.80 185.98Q853.34 185.98 852.53 186.83Q851.73 187.68 851.73 189.24" fill="white" fill-opacity="0.7"/>
<path d="M870.62 197.64L867.78 197.64L863.30 184.44L865.62 184.44L868.50 193.32Q868.77 194.11 868.96 194.84Q869.15 195.58 869.25 195.98Q869.37 195.58 869.54 194.84Q869.70 194.11 869.94 193.32L872.82 184.44L875.10 184.44" fill="white" fill-opacity="0.7"/>
<path d="M883.60 197.88Q881.27 197.88 879.84 196.48Q878.42 195.07 878.42 192.60L878.42 189.48Q878.42 187.01 879.84 185.60Q881.27 184.20 883.60 184.20Q885.16 184.20 886.32 184.82Q887.49 185.45 888.14 186.58Q888.78 187.70 888.78 189.24L888.78 191.59L880.53 191.59L880.53 192.84Q880.53 194.30 881.37 195.16Q882.21 196.01 883.60 196.01Q884.80 196.01 885.58 195.54Q886.36 195.07 886.53 194.28L888.69 194.28Q888.47 195.94 887.08 196.91Q885.69 197.88 883.60 197.88M880.53 189.24L880.53 189.91L886.67 189.91L886.67 189.24Q886.67 187.68 885.87 186.83Q885.06 185.98 883.60 185.98Q882.14 185.98 881.33 186.83Q880.53 187.68 880.53 189.24" fill="white" fill-opacity="0.7"/>
<path d="M912.59 197.88Q910.19 197.88 908.75 196.54Q907.31 195.19 907.31 192.84L907.31 189.24Q907.31 186.89 908.75 185.54Q910.19 184.20 912.59 184.20Q914.87 184.20 916.28 185.42Q917.68 186.65 917.75 188.76L915.59 188.76Q915.52 187.49 914.73 186.80Q913.94 186.12 912.59 186.12Q911.18 186.12 910.32 186.92Q909.47 187.73 909.47 189.22L909.47 192.84Q909.47 194.33 910.32 195.14Q911.18 195.96 912.59 195.96Q913.94 195.96 914.73 195.26Q915.52 194.57 915.59 193.32L917.75 193.32Q917.68 195.43 916.28 196.66Q914.87 197.88 912.59 197.88" fill="white" fill-opacity="0.7"/>
<path d="M925.65 197.88Q923.61 197.88 922.41 196.74Q921.21 195.60 921.21 193.75Q921.21 192.53 921.76 191.62Q922.31 190.70 923.30 190.19Q924.28 189.67 925.55 189.67L929.63 189.67L929.63 188.64Q929.63 186.07 926.82 186.07Q925.58 186.07 924.81 186.53Q924.04 186.98 923.99 187.80L921.83 187.80Q921.95 186.24 923.28 185.22Q924.62 184.20 926.82 184.20Q929.22 184.20 930.51 185.35Q931.79 186.50 931.79 188.57L931.79 197.64L929.66 197.64L929.66 195.24L929.61 195.24Q929.42 196.46 928.38 197.17Q927.35 197.88 925.65 197.88M926.18 196.06Q927.76 196.06 928.70 195.29Q929.63 194.52 929.63 193.20L929.63 191.35L925.79 191.35Q924.74 191.35 924.08 191.99Q923.42 192.62 923.42 193.68Q923.42 194.78 924.15 195.42Q924.88 196.06 926.18 196.06" fill="white" fill-opacity="0.7"/>
<path d="M947.20 197.64L943.12 197.64Q941.37 197.64 940.32 196.62Q939.28 195.60 939.28 193.92L939.28 182.09L934.72 182.09L934.72 180.12L941.44 180.12L941.44 193.92Q941.44 194.74 941.90 195.20Q942.35 195.67 943.12 195.67L947.20 195.67" fill="white" fill-opacity="0.7"/>
<path d="M961.60 197.64L957.52 197.64Q955.77 197.64 954.72 196.62Q953.68 195.60 953.68 193.92L953.68 182.09L949.12 182.09L949.12 180.12L955.84 180.12L955.84 193.92Q955.84 194.74 956.30 195.20Q956.75 195.67 957.52 195.67L961.60 195.67" fill="white" fill-opacity="0.7"/>
<path d="M990.40 197.64L986.32 197.64Q984.57 197.64 983.52 196.62Q982.48 195.60 982.48 193.92L982.48 182.09L977.92 182.09L977.92 180.12L984.64 180.12L984.64 193.92Q984.64 194.74 985.10 195.20Q985.55 195.67 986.32 195.67L990.40 195.67" fill="white" fill-opacity="0.7"/>
<path d="M998.80 197.83Q996.42 197.83 995.02 196.44Q993.62 195.05 993.62 192.55L993.62 189.53Q993.62 187.01 995.01 185.63Q996.40 184.25 998.80 184.25Q1001.20 184.25 1002.59 185.63Q1003.98 187.01 1003.98 189.53L1003.98 192.55Q1003.98 195.05 1002.58 196.44Q1001.18 197.83 998.80 197.83M998.80 195.91Q1000.22 195.91 1001.02 195.12Q1001.82 194.33 1001.82 192.79L1001.82 189.29Q1001.82 187.75 1001.02 186.96Q1000.22 186.17 998.80 186.17Q997.41 186.17 996.59 186.96Q995.78 187.75 995.78 189.29L995.78 192.79Q995.78 194.33 996.59 195.12Q997.41 195.91 998.80 195.91" fill="white" fill-opacity="0.7"/>
<path d="M1013.56 201.96L1009.86 201.96L1009.86 199.99L1013.58 199.99Q1014.71 199.99 1015.36 199.36Q1016.01 198.72 1016.01 197.64L1016.01 196.44L1016.06 194.28L1015.98 194.28Q1015.79 195.46 1014.86 196.09Q1013.92 196.73 1012.50 196.73Q1010.46 196.73 1009.29 195.43Q1008.11 194.14 1008.11 191.88L1008.11 189.10Q1008.11 186.84 1009.29 185.52Q1010.46 184.20 1012.50 184.20Q1013.92 184.20 1014.86 184.87Q1015.79 185.54 1015.98 186.72L1016.03 186.72L1016.03 184.44L1018.17 184.44L1018.17 197.64Q1018.17 199.63 1016.93 200.80Q1015.70 201.96 1013.56 201.96M1013.15 194.93Q1014.50 194.93 1015.26 194.09Q1016.03 193.25 1016.03 191.76L1016.03 189.24Q1016.03 187.75 1015.26 186.91Q1014.50 186.07 1013.15 186.07Q1011.78 186.07 1011.03 186.86Q1010.27 187.66 1010.27 189L1010.27 192Q1010.27 193.34 1011.03 194.14Q1011.78 194.93 1013.15 194.93" fill="white" fill-opacity="0.7"/>
<path d="M1028.13 197.83L1027.07 197.83Q1024.86 197.83 1023.65 196.84Q1022.44 195.84 1022.44 194.02L1024.60 194.02Q1024.60 194.93 1025.25 195.44Q1025.90 195.96 1027.07 195.96L1028.13 195.96Q1029.33 195.96 1029.99 195.43Q1030.65 194.90 1030.65 193.94Q1030.65 192.24 1029.09 192.02L1025.44 191.50Q1024.10 191.30 1023.35 190.38Q1022.61 189.46 1022.61 187.94Q1022.61 186.22 1023.80 185.23Q1024.98 184.25 1027.07 184.25L1028.13 184.25Q1030.05 184.25 1031.26 185.20Q1032.47 186.14 1032.57 187.68L1030.38 187.68Q1030.34 186.98 1029.72 186.53Q1029.11 186.07 1028.13 186.07L1027.07 186.07Q1025.97 186.07 1025.34 186.58Q1024.72 187.08 1024.72 187.94Q1024.72 189.34 1025.99 189.53L1029.40 190.01Q1032.76 190.49 1032.76 193.94Q1032.76 195.79 1031.55 196.81Q1030.34 197.83 1028.13 197.83" fill="white" fill-opacity="0.7"/>
<path d="M1056.52 197.64L1054.36 197.64L1054.36 188.21L1050.52 188.21L1050.52 186.24L1054.36 186.24L1054.36 183.48Q1054.36 181.92 1055.34 181.02Q1056.33 180.12 1058.06 180.12L1061.92 180.12L1061.92 182.09L1058.06 182.09Q1056.52 182.09 1056.52 183.48L1056.52 186.24L1061.92 186.24L1061.92 188.21L1056.52 188.21" fill="white" fill-opacity="0.7"/>
<path d="M1070.80 197.83Q1068.42 197.83 1067.02 196.44Q1065.62 195.05 1065.62 192.55L1065.62 189.53Q1065.62 187.01 1067.01 185.63Q1068.40 184.25 1070.80 184.25Q1073.20 184.25 1074.59 185.63Q1075.98 187.01 1075.98 189.53L1075.98 192.55Q1075.98 195.05 1074.58 196.44Q1073.18 197.83 1070.80 197.83M1070.80 195.91Q1072.22 195.91 1073.02 195.12Q1073.82 194.33 1073.82 192.79L1073.82 189.29Q1073.82 187.75 1073.02 186.96Q1072.22 186.17 1070.80 186.17Q1069.41 186.17 1068.59 186.96Q1067.78 187.75 1067.78 189.29L1067.78 192.79Q1067.78 194.33 1068.59 195.12Q1069.41 195.91 1070.80 195.91" fill="white" fill-opacity="0.7"/>
<path d="M1082.85 197.64L1080.69 197.64L1080.69 184.44L1082.85 184.44L1082.85 186.96L1082.90 186.96Q1083.06 185.69 1083.98 184.94Q1084.89 184.20 1086.42 184.20Q1088.49 184.20 1089.60 185.44Q1090.72 186.67 1090.72 188.95L1090.72 190.08L1088.56 190.08L1088.56 188.95Q1088.56 186.07 1085.75 186.07Q1084.34 186.07 1083.59 186.89Q1082.85 187.70 1082.85 189.24" fill="white" fill-opacity="0.7"/>
<path d="M1113.33 201.96L1111.07 201.96L1113.02 196.82L1108.10 184.44L1110.42 184.44L1113.54 192.60Q1113.74 193.08 1113.90 193.61Q1114.07 194.14 1114.14 194.52Q1114.22 194.14 1114.38 193.61Q1114.55 193.08 1114.72 192.60L1117.62 184.44L1119.90 184.44" fill="white" fill-opacity="0.7"/>
<path d="M1128.40 197.83Q1126.02 197.83 1124.62 196.44Q1123.22 195.05 1123.22 192.55L1123.22 189.53Q1123.22 187.01 1124.61 185.63Q1126 184.25 1128.40 184.25Q1130.80 184.25 1132.19 185.63Q1133.58 187.01 1133.58 189.53L1133.58 192.55Q1133.58 195.05 1132.18 196.44Q1130.78 197.83 1128.40 197.83M1128.40 195.91Q1129.82 195.91 1130.62 195.12Q1131.42 194.33 1131.42 192.79L1131.42 189.29Q1131.42 187.75 1130.62 186.96Q1129.82 186.17 1128.40 186.17Q1127.01 186.17 1126.19 186.96Q1125.38 187.75 1125.38 189.29L1125.38 192.79Q1125.38 194.33 1126.19 195.12Q1127.01 195.91 1128.40 195.91" fill="white" fill-opacity="0.7"/>
<path d="M1142.78 197.88Q1140.50 197.88 1139.13 196.52Q1137.76 195.17 1137.76 192.84L1137.76 184.44L1139.92 184.44L1139.92 192.84Q1139.92 194.28 1140.69 195.13Q1141.46 195.98 1142.78 195.98Q1144.12 195.98 1144.90 195.13Q1145.68 194.28 1145.68 192.84L1145.68 184.44L1147.84 184.44L1147.84 192.84Q1147.84 195.17 1146.45 196.52Q1145.06 197.88 1142.78 197.88" fill="white" fill-opacity="0.7"/>
<path d="M1154.85 197.64L1152.69 197.64L1152.69 184.44L1154.85 184.44L1154.85 186.96L1154.90 186.96Q1155.06 185.69 1155.98 184.94Q1156.89 184.20 1158.42 184.20Q1160.49 184.20 1161.60 185.44Q1162.72 186.67 1162.72 188.95L1162.72 190.08L1160.56 190.08L1160.56 188.95Q1160.56 186.07 1157.75 186.07Q1156.34 186.07 1155.59 186.89Q1154.85 187.70 1154.85 189.24" fill="white" fill-opacity="0.7"/>
<path d="M76.05 229.88Q74.01 229.88 72.81 228.74Q71.61 227.60 71.61 225.75Q71.61 224.53 72.16 223.62Q72.71 222.70 73.70 222.19Q74.68 221.67 75.95 221.67L80.03 221.67L80.03 220.64Q80.03 218.07 77.22 218.07Q75.98 218.07 75.21 218.53Q74.44 218.98 74.39 219.80L72.23 219.80Q72.35 218.24 73.68 217.22Q75.02 216.20 77.22 216.20Q79.62 216.20 80.91 217.35Q82.19 218.50 82.19 220.57L82.19 229.64L80.06 229.64L80.06 227.24L80.01 227.24Q79.82 228.46 78.78 229.17Q77.75 229.88 76.05 229.88M76.58 228.06Q78.16 228.06 79.10 227.29Q80.03 226.52 80.03 225.20L80.03 223.35L76.19 223.35Q75.14 223.35 74.48 223.99Q73.82 224.62 73.82 225.68Q73.82 226.78 74.55 227.42Q75.28 228.06 76.58 228.06" fill="white" fill-opacity="0.7"/>
<path d="M91.79 229.88Q89.39 229.88 87.95 228.54Q86.51 227.19 86.51 224.84L86.51 221.24Q86.51 218.89 87.95 217.54Q89.39 216.20 91.79 216.20Q94.07 216.20 95.48 217.42Q96.88 218.65 96.95 220.76L94.79 220.76Q94.72 219.49 93.93 218.80Q93.14 218.12 91.79 218.12Q90.38 218.12 89.52 218.92Q88.67 219.73 88.67 221.22L88.67 224.84Q88.67 226.33 89.52 227.14Q90.38 227.96 91.79 227.96Q93.14 227.96 93.93 227.26Q94.72 226.57 94.79 225.32L96.95 225.32Q96.88 227.43 95.48 228.66Q94.07 229.88 91.79 229.88" fill="white" fill-opacity="0.7"/>
<path d="M106.19 229.88Q103.79 229.88 102.35 228.54Q100.91 227.19 100.91 224.84L100.91 221.24Q100.91 218.89 102.35 217.54Q103.79 216.20 106.19 216.20Q108.47 216.20 109.88 217.42Q111.28 218.65 111.35 220.76L109.19 220.76Q109.12 219.49 108.33 218.80Q107.54 218.12 106.19 218.12Q104.78 218.12 103.92 218.92Q103.07 219.73 103.07 221.22L103.07 224.84Q103.07 226.33 103.92 227.14Q104.78 227.96 106.19 227.96Q107.54 227.96 108.33 227.26Q109.12 226.57 109.19 225.32L111.35 225.32Q111.28 227.43 109.88 228.66Q108.47 229.88 106.19 229.88" fill="white" fill-opacity="0.7"/>
<path d="M120.40 229.83Q118.02 229.83 116.62 228.44Q115.22 227.05 115.22 224.55L115.22 221.53Q115.22 219.01 116.61 217.63QNaN 216.25 120.40 216.25Q122.80 216.25 124.19 217.63Q125.58 219.01 125.58 221.53L125.58 224.55Q125.58 227.05 124.18 228.44Q122.78 229.83 120.40 229.83M120.40 227.91Q121.82 227.91 122.62 227.12Q123.42 226.33 123.42 224.79L123.42 221.29Q123.42 219.75 122.62 218.96Q121.82 218.17 120.40 218.17Q119.01 218.17 118.19 218.96Q117.38 219.75 117.38 221.29L117.38 224.79Q117.38 226.33 118.19 227.12Q119.01 227.91 120.40 227.91" fill="white" fill-opacity="0.7"/>
<path d="M134.78 229.88Q132.50 229.88 131.13 228.52Q129.76 227.17 129.76 224.84L129.76 216.44L131.92 216.44L131.92 224.84Q131.92 226.28 132.69 227.13Q133.46 227.98 134.78 227.98Q136.12 227.98 136.90 227.13Q137.68 226.28 137.68 224.84L137.68 216.44L139.84 216.44L139.84 224.84Q139.84 227.17 138.45 228.52Q137.06 229.88 134.78 229.88" fill="white" fill-opacity="0.7"/>
<path d="M146.37 229.64L144.21 229.64L144.21 216.44L146.37 216.44L146.37 218.96L146.39 218.96Q146.56 217.64 147.47 216.92Q148.38 216.20 149.90 216.20Q151.89 216.20 153.06 217.42Q154.24 218.65 154.24 220.76L154.24 229.64L152.08 229.64L152.08 221.14Q152.08 219.63 151.32 218.83Q150.57 218.02 149.27 218.02Q147.93 218.02 147.15 218.86Q146.37 219.70 146.37 221.24" fill="white" fill-opacity="0.7"/>
<path d="M168.76 229.64L164.92 229.64Q163.29 229.64 162.30 228.69Q161.32 227.74 161.32 226.16L161.32 218.41L157.53 218.41L157.53 216.44L161.32 216.44L161.32 212.72L163.48 212.72L163.48 216.44L168.88 216.44L168.88 218.41L163.48 218.41L163.48 226.16Q163.48 226.83 163.88 227.25Q164.27 227.67 164.92 227.67L168.76 227.67" fill="white" fill-opacity="0.7"/>
<path d="M97.14 136.06L84.37 136.06L66.42 65.98L76.21 65.98L87.82 113.21Q88.98 117.72 89.79 121.90Q90.61 126.08 90.99 128.28Q91.28 126.08 92.19 121.85Q93.10 117.63 94.16 113.12L105.39 65.98L115.18 65.98L97.14 136.06M148.40 137.02Q138.80 137.02 133.23 131.45Q127.66 125.88 127.66 115.71L127.66 86.24Q127.66 76.16 133.23 70.59Q138.80 65.02 148.40 65.02Q158 65.02 163.57 70.54Q169.14 76.06 169.14 86.24L169.14 115.71Q169.14 125.88 163.57 131.45Q158 137.02 148.40 137.02M148.40 128.57Q153.78 128.57 156.70 125.50Q159.63 122.43 159.63 116.67L159.63 85.28Q159.63 79.61 156.75 76.54Q153.87 73.47 148.40 73.47Q142.93 73.47 140.05 76.54Q137.17 79.61 137.17 85.28L137.17 116.67Q137.17 122.43 140.10 125.50Q143.02 128.57 148.40 128.57M194.38 136.06L185.46 136.06L185.46 65.98L197.74 65.98L218.67 125.12Q218.38 122.62 218.14 118.92Q217.90 115.23 217.76 111.24Q217.62 107.26 217.62 103.71L217.62 65.98L226.64 65.98L226.64 136.06L214.26 136.06L193.52 76.92Q193.71 79.42 193.90 83.02Q194.10 86.62 194.24 90.56Q194.38 94.49 194.38 97.95L194.38 136.06M248.91 136.06L239.22 136.06L257.36 65.98L269.94 65.98L287.98 136.06L278.29 136.06L273.87 117.82L253.33 117.82L248.91 136.06M260.34 88.92L255.25 109.95L271.95 109.95L266.96 89.02Q265.52 83.26 264.66 79.23Q263.79 75.20 263.60 73.76Q263.41 75.20 262.54 79.23Q261.68 83.26 260.34 88.92M321.58 137.02Q311.89 137.02 306.18 131.60Q300.46 126.17 300.46 116.67L300.46 85.28Q300.46 75.87 306.18 70.44Q311.89 65.02 321.58 65.02Q331.18 65.02 336.90 70.49Q342.61 75.96 342.61 85.28L333.10 85.28Q333.10 79.61 330.03 76.54Q326.96 73.47 321.58 73.47Q316.11 73.47 313.04 76.54Q309.97 79.61 309.97 85.28L309.97 116.67Q309.97 122.43 313.04 125.50Q316.11 128.57 321.58 128.57Q326.96 128.57 330.03 125.50Q333.10 122.43 333.10 116.67L333.10 107.55L319.47 107.55L319.47 99.10L342.61 99.10L342.61 116.67Q342.61 126.08 336.90 131.55Q331.18 137.02 321.58 137.02M400.11 136.06L359.31 136.06L359.31 65.98L400.11 65.98L400.11 74.52L368.72 74.52L368.72 95.36L396.75 95.36L396.75 103.61L368.72 103.61L368.72 127.52L400.11 127.52L400.11 136.06M483.15 136.06L473.74 136.06L473.74 65.98L495.44 65.98Q501.87 65.98 506.67 68.52Q511.47 71.07 514.16 75.63Q516.85 80.19 516.85 86.33Q516.85 93.44 513.25 98.52Q509.65 103.61 503.70 105.72L517.81 136.06L507.34 136.06LNaN 106.78L483.15 106.78L483.15 136.06M483.15 74.43L483.15 98.33L495.44 98.33Q500.82 98.33 503.94 95.07Q507.06 91.80 507.06 86.43Q507.06 80.96 503.89 77.69Q500.72 74.43 495.44 74.43L483.15 74.43M572.91 136.06L532.11 136.06L532.11 65.98L572.91 65.98L572.91 74.52L541.52 74.52L541.52 95.36L569.55 95.36L569.55 103.61L541.52 103.61L541.52 127.52L572.91 127.52L572.91 136.06M598.35 136.06L588.85 136.06L588.85 65.98L611.60 65.98Q618.32 65.98 623.22 68.57Q628.11 71.16 630.80 75.82Q633.49 80.48 633.49 86.91Q633.49 93.24 630.80 97.90Q628.11 102.56 623.17 105.15Q618.22 107.74 611.60 107.74L598.35 107.74L598.35 136.06M598.35 74.43L598.35 99.29L611.60 99.29Q617.17 99.29 620.43 95.88Q623.70 92.48 623.70 86.91Q623.70 81.24 620.43 77.84Q617.17 74.43 611.60 74.43L598.35 74.43M666.80 137.02Q657.20 137.02 651.63 131.45Q646.06 125.88 646.06 115.71L646.06 86.24Q646.06 76.16 651.63 70.59Q657.20 65.02 666.80 65.02Q676.40 65.02 681.97 70.54Q687.54 76.06 687.54 86.24L687.54 115.71Q687.54 125.88 681.97 131.45Q676.40 137.02 666.80 137.02M666.80 128.57Q672.18 128.57 675.10 125.50Q678.03 122.43 678.03 116.67L678.03 85.28Q678.03 79.61 675.15 76.54Q672.27 73.47 666.80 73.47Q661.33 73.47 658.45 76.54Q655.57 79.61 655.57 85.28L655.57 116.67Q655.57 122.43 658.50 125.50Q661.42 128.57 666.80 128.57M713.55 136.06L704.14 136.06L704.14 65.98L725.84 65.98Q732.27 65.98 737.07 68.52Q741.87 71.07 744.56 75.63Q747.25 80.19 747.25 86.33Q747.25 93.44 743.65 98.52Q740.05 103.61 734.10 105.72L748.21 136.06L737.74 136.06L724.40 106.78L713.55 106.78L713.55 136.06M713.55 74.43L713.55 98.33L725.84 98.33Q731.22 98.33 734.34 95.07Q737.46 91.80 737.46 86.43Q737.46 80.96 734.29 77.69Q731.12 74.43 725.84 74.43L713.55 74.43M786.80 136.06L777.30 136.06L777.30 74.62L758.29 74.62L758.29 65.98L805.71 65.98L805.71 74.62L786.80 74.62L786.80 136.06M839.98 137.02Q829.62 137.02 823.47 131.60Q817.33 126.17 817.33 116.67L826.83 116.67Q826.83 122.24 830.38 125.40Q833.94 128.57 839.98 128.57Q845.74 128.57 849.15 125.36Q852.56 122.14 852.56 116.76Q852.56 112.73 850.35 109.71Q848.14 106.68 844.11 105.63L833.74 102.84Q826.93 100.92 822.94 95.88Q818.96 90.84 818.96 83.93Q818.96 78.27 821.50 74Q824.05 69.72 828.66 67.37Q833.26 65.02 839.31 65.02Q845.46 65.02 850.11 67.37Q854.77 69.72 857.36 73.95Q859.95 78.17 859.95 83.74L850.54 83.74Q850.54 79.13 847.42 76.25Q844.30 73.37 839.31 73.37Q834.32 73.37 831.30 76.25Q828.27 79.13 828.27 83.74Q828.27 87.48 830.29 90.03Q832.30 92.57 835.95 93.63L846.61 96.51Q853.81 98.43 857.84 103.85Q861.87 109.28 861.87 116.76Q861.87 122.91 859.18 127.47Q856.50 132.03 851.55 134.52Q846.61 137.02 839.98 137.02" fill="url(#paint2_linear_0_1)"/>
<g id="Group 1">
<rect id="Rectangle 1" x="26" y="168" width="12" height="184" rx="5" fill="url(#paint3_linear_0_1)" fill-opacity="0.9"/>
</g>
<g id="Group 1_2">
<rect id="Rectangle 2" x="26" y="38" width="12" height="119" rx="5" fill="url(#paint4_linear_0_1)" fill-opacity="0.9"/>
</g>
<ellipse id="Ellipse 1" cx="148.5" cy="573" rx="215.5" ry="214" fill="url(#paint5_linear_0_1)" fill-opacity="0.4"/>
<rect id="Rectangle 3" x="1229" y="48" width="300" height="300" rx="25" fill="#FFFBFB" fill-opacity="0.9"/>
<g id="placeholder-logo"><g transform="translate(1229,48) translate(0.0,60.0) scale(1.2000)"><g fill="#666666">
  <path d="m88.05,27.65c-3.15,4 -3.2,51.2 -0.05,54.35c2.75,2.75 71.7,3.15 74.45,0.45c2.85,-2.9 2.3,-53.85 -0.65,-55.9c-1.95,-1.35 -7.15,-1.55 -36.95,-1.55l-34.7,0l-2.1,2.65zm69.45,3.35c0.65,0 1,8.6 1,23.75l0,23.75l-33,0l-33,0l-0.25,-23c-0.15,-12.6 -0.1,-23.45 0.15,-24.1c0.35,-0.85 8.9,-1.05 32.25,-0.75c17.55,0.2 32.3,0.35 32.85,0.35z"/>
  <path d="m99.15,37.3c-6.85,7.35 4.25,17.35 11.4,10.25c1.35,-1.35 2.45,-3.65 2.45,-5.05c0,-6.45 -9.35,-9.95 -13.85,-5.2z"/>
  <path d="m135,42.5c-0.7,0.85 -5.25,5.15 -10.1,9.6l-8.85,8.1l-3.2,-3.2l-3.15,-3.15l-6.35,6.3c-5.55,5.5 -6.35,6.75 -6.35,10.05l0,3.8l28.5,0l28.5,0l0,-8.6l0,-8.55l-8.15,-7.7c-9.35,-8.85 -9.15,-8.7 -10.85,-6.65zm7.25,15.2c0.95,0.9 1.75,2.9 1.75,4.45c6.35,-5.05 4.75,-7.15 4.9,-11.55c0.95,0 0,0 0,0l-6.65,7.1z"/>
  <path d="m53.65,110.75c0.1,4.8 0.45,8.65 0.75,8.5c0.35,-0.15 1.3,-0.25 2.1,-0.25c1.1,0 1.5,-1.2 1.5,-4.75l0,-4.75l3.25,5c4.9,7.5 6.2,6.75 6.55,-3.75c0.25,-8.15 0.15,-8.75 -1.7,-8.75c-1.65,0 -2.05,0.8 -2.3,4.75l-0.3,4.75l-2.8,-4.75c-4.85,-8.25 -7.25,-6.9 -7.05,4z"/>
  <path d="m91,108.9c0,9.65 0.3,10.1 6.1,10.1c5.8,0 7.15,-2.65 1.65,-3.2l-3.25,-0.3l-0.3,-6.75c-0.25,-5.95 -0.55,-6.75 -2.25,-6.75c-1.75,0 -1.95,0.7 -1.95,6.9z"/>
  <path d="m151,102.45c0,0.25 1,2.15 2.25,4.2c1.2,2.1 2.45,5.8 2.75,8.25c0.65,5.9 4,6.95 4,1.25c0.05,-2.1 1.25,-5.85 2.95,-8.9l2.9,-5.25l-2.5,0c-1.8,0 -2.8,0.85 -3.75,3.1l-1.3,3.05l-1.25,-3.05c-1.1,-2.6 -6.05,-4.8 -6.05,-2.65z"/>
  <path d="m191,107.45c0,9.05 3.4,8.85 4.25,-0.2c0.45,-5 0.35,-5.25 -1.9,-5.25c-2.2,0 -2.35,0.4 -2.35,5.45z"/>
  <path d="m180.8,104.75c-1.3,5.35 0.65,13.6 3.45,14.35c2.3,0.6 2.75,0.4 2.75,-1.2c0,-1.05 -0.45,-1.9 -1,-1.9c-0.55,0 -1,-1.6 -1,-3.5c0,-1.95 0.45,-3.5 1,-3.5c0.55,0 1,-0.7 1,-1.5c0,-0.85 -0.45,-1.5 -1,-1.5c-0.55,0 -1,-0.7 -1,-1.5c0,-2.1 -3.65,-1.9 -4.2,0.25z"/>
  <path d="m71.55,106.55c-2.2,2.25 -2.05,9.7 0.3,11.8c4.5,4.1 10.15,0.75 10.15,-6.1c0,-4.85 -2,-7.25 -6,-7.25c-1.55,0 -3.55,0.7 -4.45,1.55zm6.25,5.8c0.25,3.05 0,3.65 -1.6,3.65c-2.3,0 -3.25,-2.65 -2.05,-5.85c1.25,-3.35 3.3,-2.1 3.65,2.2z"/>
  <path d="m105.75,106.1c-2.5,1.45 -2.45,9.95 0.1,12.25c4.3,3.9 10.15,0.35 10.15,-6.2c0,-6 -5.15,-9.05 -10.25,-6.05zm6.05,6.25c0.25,3.05 0,3.65 -1.6,3.65c-2.3,0 -3.25,-2.65 -2.05,-5.85c1.25,-3.35 3.3,-2.1 3.65,2.2z"/>
  <path d="m119.2,106.2c-3.8,3.8 -0.4,12.55 4.4,11.35c1.9,-0.45 2.45,-0.3 2.15,0.65c-0.25,0.7 -1.55,1.2 -2.85,1.1c-4.05,-0.3 -5.35,0.45 -3.85,2.25c0.85,1.05 2.6,1.45 5.35,1.25l4.1,-0.3l0.3,-8.75l0.3,-8.75l-4.35,0c-2.4,0 -4.9,0.55 -5.55,1.2zm6.6,4.45c0.4,2.85 -2.15,4.85 -3.75,2.95c-0.9,-1.1 -0.9,-2 -0.05,-3.6c1.35,-2.5 3.4,-2.15 3.8,0.65z"/>
  <path d="m133.55,106.55c-2.2,2.25 -2.05,9.7 0.3,11.8c4.5,4.1 10.15,0.75 10.15,-6.1c0,-4.85 -2,-7.25 -6,-7.25c-1.55,0 -3.55,0.7 -4.45,1.55zm6.25,5.8c0.25,3.05 0,3.65 -1.6,3.65c-2.3,0 -3.25,-2.65 -2.05,-5.85c1.25,-3.35 3.3,-2.1 3.65,2.2z"/>
  <path d="m167.65,106.85c-3.9,4.3 -0.75,13.15 4.7,13.15c2.4,0 5.65,-2.75 5.65,-4.85c0,-1.4 -2.65,-1.55 -3.5,-0.15c-0.95,1.55 -4.5,1.15 -4.5,-0.5c0,-1.1 1.1,-1.5 4,-1.5c3.15,0 4,-0.35 4,-1.8c0,-5.3 -6.85,-8.25 -10.35,-4.35z"/>
  <path d="m191,117.5c0,2.15 0.4,2.6 2.25,2.3c1.5,-0.2 2.25,-1 2.25,-2.3c0,-1.3 -0.75,-2.1 -2.25,-2.3c-1.85,-0.3 -2.25,0.15 -2.25,2.3z"/>
 </g></g></g>
</g>
<defs>
<linearGradient id="paint0_linear_0_1" x1="0" y1="198" x2="1584" y2="198" gradientUnits="userSpaceOnUse">
<stop stop-color="#3D052C"/>
<stop offset="1"/>
</linearGradient>
<linearGradient id="paint1_linear_0_1" x1="323" y1="-224" x2="323" y2="352" gradientUnits="userSpaceOnUse">
<stop stop-color="#28F6F2" stop-opacity="0.4"/>
<stop offset="1" stop-color="#17908E" stop-opacity="0.7"/>
</linearGradient>
<linearGradient id="paint2_linear_0_1" x1="148.5" y1="38" x2="148.5" y2="140" gradientUnits="userSpaceOnUse">
<stop stop-color="white"/>
<stop offset="1" stop-color="#999999"/>
</linearGradient>
<linearGradient id="paint3_linear_0_1" x1="38" y1="260" x2="26" y2="260" gradientUnits="userSpaceOnUse">
<stop stop-color="#D9D9D9"/>
<stop offset="1" stop-color="#737373"/>
</linearGradient>
<linearGradient id="paint4_linear_0_1" x1="38" y1="97.5" x2="26" y2="97.5" gradientUnits="userSpaceOnUse">
<stop stop-color="#D9D9D9"/>
<stop offset="1" stop-color="#737373"/>
</linearGradient>
<linearGradient id="paint5_linear_0_1" x1="27.5" y1="434.5" x2="148.5" y2="787" gradientUnits="userSpaceOnUse">
<stop stop-color="#2E21BC"/>
<stop offset="1" stop-color="#150F56"/>
</linearGradient>
<clipPath id="clip0_0_1">
<rect width="1584" height="396" fill="white"/>
</clipPath>
</defs>
</svg>
